<?xml version="1.0" encoding="UTF-8"?>
<svg version="1.1" xmlns="http://www.w3.org/2000/svg" width="2007" height="2007">
<path d="M0,0 L77,0 L126,3 L172,8 L217,15 L257,23 L309,36 L352,49 L392,63 L422,75 L452,88 L488,105 L517,120 L541,134 L557,143 L576,155 L615,181 L633,194 L654,210 L668,221 L681,232 L692,241 L702,250 L710,257 L720,266 L735,280 L771,316 L778,324 L791,338 L800,349 L809,359 L818,370 L830,385 L845,405 L859,424 L881,457 L892,474 L907,499 L920,522 L938,556 L951,583 L967,620 L981,656 L994,693 L1006,733 L1019,785 L1027,825 L1034,871 L1039,917 L1041,945 L1042,967 L1042,1040 L1039,1090 L1034,1136 L1027,1181 L1018,1226 L1007,1270 L995,1310 L981,1351 L966,1389 L952,1421 L938,1450 L926,1474 L913,1497 L900,1520 L888,1539 L874,1561 L862,1578 L850,1595 L834,1616 L823,1630 L810,1646 L798,1660 L789,1670 L782,1678 L771,1690 L756,1706 L733,1729 L725,1736 L717,1744 L709,1751 L699,1760 L688,1769 L673,1782 L659,1793 L641,1807 L623,1820 L603,1834 L577,1851 L556,1864 L532,1878 L508,1891 L485,1903 L456,1917 L419,1933 L385,1946 L348,1959 L311,1970 L273,1980 L231,1989 L190,1996 L152,2001 L108,2005 L66,2007 L11,2007 L-31,2005 L-75,2001 L-120,1995 L-169,1986 L-212,1976 L-261,1962 L-311,1945 L-339,1934 L-374,1919 L-408,1903 L-439,1887 L-462,1874 L-492,1856 L-517,1840 L-540,1824 L-558,1811 L-575,1798 L-589,1787 L-600,1778 L-613,1767 L-627,1755 L-640,1743 L-650,1734 L-660,1724 L-668,1717 L-681,1704 L-688,1696 L-699,1685 L-706,1677 L-717,1665 L-726,1654 L-739,1639 L-750,1625 L-764,1607 L-777,1589 L-789,1572 L-807,1545 L-822,1521 L-837,1495 L-850,1471 L-864,1444 L-879,1412 L-895,1374 L-909,1336 L-921,1300 L-931,1265 L-941,1225 L-950,1180 L-957,1134 L-961,1098 L-964,1057 L-965,1032 L-965,974 L-963,933 L-959,889 L-953,845 L-946,806 L-937,765 L-929,734 L-917,694 L-905,659 L-889,618 L-873,582 L-859,553 L-849,533 L-836,510 L-823,487 L-811,468 L-797,446 L-785,429 L-773,412 L-757,391 L-747,378 L-733,361 L-721,347 L-709,333 L-694,317 L-682,304 L-653,275 L-645,268 L-629,253 L-621,246 L-607,234 L-596,225 L-580,212 L-568,203 L-549,189 L-532,177 L-502,157 L-481,144 L-457,130 L-439,120 L-416,108 L-400,100 L-373,87 L-340,73 L-306,60 L-281,51 L-239,38 L-197,27 L-156,18 L-109,10 L-69,5 L-21,1 Z " fill="#FE0009" transform="translate(965,0)"/>
<path d="M0,0 L14,0 L30,3 L46,10 L58,18 L72,29 L85,39 L103,53 L116,63 L129,73 L147,87 L160,97 L178,111 L191,121 L204,131 L222,145 L235,155 L253,169 L266,179 L279,189 L297,203 L310,213 L328,227 L341,237 L349,221 L357,207 L367,193 L379,179 L400,158 L411,149 L427,136 L453,119 L470,108 L480,102 L482,109 L487,143 L489,165 L489,213 L485,247 L481,271 L477,288 L468,315 L458,339 L447,360 L435,379 L424,393 L413,406 L392,427 L378,438 L364,448 L349,457 L327,468 L303,477 L278,483 L250,487 L216,487 L197,485 L175,481 L150,474 L125,464 L109,456 L94,448 L73,434 L60,424 L47,414 L29,400 L11,386 L-7,372 L-20,362 L-38,348 L-56,334 L-74,320 L-92,306 L-105,296 L-120,284 L-133,274 L-151,260 L-164,250 L-182,236 L-200,222 L-218,208 L-231,198 L-249,184 L-267,170 L-271,167 L-270,164 L-255,154 L-240,147 L-230,144 L-223,143 L-212,143 L-197,146 L-182,152 L-167,162 L-151,175 L-137,186 L-121,199 L-108,209 L-92,222 L-78,233 L-64,244 L-48,257 L-34,268 L-20,279 L-4,292 L10,303 L24,314 L30,319 L34,318 L41,314 L40,311 L26,300 L15,291 L-1,278 L-15,267 L-32,253 L-46,242 L-63,228 L-77,217 L-94,203 L-108,192 L-125,178 L-139,167 L-156,153 L-170,142 L-187,128 L-199,119 L-197,115 L-183,106 L-169,99 L-153,95 L-138,95 L-123,98 L-106,106 L-92,116 L-76,129 L-62,140 L-47,152 L-33,163 L-17,176 L0,189 L17,203 L31,214 L45,225 L61,238 L75,249 L89,260 L105,273 L111,271 L114,268 L98,255 L88,247 L72,234 L58,223 L41,209 L27,198 L10,184 L0,176 L-16,163 L-30,152 L-47,138 L-61,127 L-78,113 L-92,102 L-109,88 L-123,77 L-129,72 L-129,70 L-114,60 L-100,53 L-91,50 L-85,49 L-64,49 L-49,53 L-32,62 L-19,72 L-3,85 L11,96 L25,107 L41,120 L58,133 L75,147 L89,158 L103,169 L119,182 L133,193 L147,204 L163,217 L177,228 L182,227 L190,222 L185,217 L168,203 L154,192 L137,178 L123,167 L106,153 L92,142 L75,128 L61,117 L44,103 L34,95 L18,82 L4,71 L-13,57 L-27,46 L-44,32 L-53,25 L-49,21 L-33,11 L-17,4 L-5,1 Z " fill="#F7D145" transform="translate(989,1255)"/>
<path d="M0,0 L30,0 L49,2 L73,6 L93,12 L114,20 L133,29 L151,40 L170,54 L182,65 L190,72 L203,86 L216,103 L225,116 L234,131 L243,148 L253,172 L260,193 L267,218 L274,244 L281,267 L285,283 L292,306 L296,322 L303,345 L309,368 L316,391 L322,414 L329,438 L348,506 L367,573 L375,601 L375,604 L354,604 L336,600 L326,596 L313,587 L306,580 L297,566 L292,555 L284,528 L265,457 L245,383 L223,302 L223,300 L214,300 L210,299 L232,383 L258,482 L279,562 L288,596 L288,600 L266,600 L252,597 L240,592 L230,586 L220,577 L213,567 L205,551 L196,519 L171,426 L148,341 L136,297 L136,293 L125,292 L133,321 L161,428 L185,519 L204,591 L204,596 L183,596 L165,592 L149,584 L138,575 L129,563 L122,549 L115,526 L95,451 L76,381 L52,292 L51,286 L36,285 L47,326 L73,425 L100,528 L115,585 L115,588 L94,588 L72,583 L56,575 L45,567 L36,557 L28,543 L22,527 L-15,397 L-50,274 L-75,186 L-75,183 L-98,195 L-112,200 L-121,203 L-135,207 L-159,211 L-181,213 L-221,213 L-259,211 L-267,210 L-264,201 L-249,173 L-234,149 L-221,131 L-210,117 L-197,102 L-182,86 L-170,75 L-156,63 L-137,49 L-116,36 L-91,23 L-68,14 L-47,8 L-25,3 Z " fill="#F7D145" transform="translate(1122,226)"/>
<path d="M0,0 L16,1 L40,5 L75,14 L105,24 L129,34 L155,47 L178,61 L197,75 L210,86 L220,95 L235,110 L244,121 L254,134 L264,149 L276,171 L286,194 L292,212 L296,229 L299,244 L301,262 L301,292 L299,314 L294,340 L285,367 L277,385 L269,401 L259,417 L249,431 L238,444 L229,454 L212,471 L201,480 L184,493 L159,510 L140,523 L118,538 L96,553 L77,566 L55,581 L33,596 L-1,619 L-20,632 L-42,647 L-64,662 L-83,675 L-105,690 L-127,705 L-146,718 L-168,733 L-171,734 L-177,714 L-178,706 L-178,685 L-175,673 L-167,657 L-156,645 L-146,636 L-107,610 L-83,594 L-39,565 L4,536 L48,507 L67,494 L69,494 L66,481 L55,488 L36,500 L18,512 L-11,531 L-43,552 L-72,571 L-104,592 L-133,611 L-162,630 L-192,650 L-195,650 L-201,630 L-202,623 L-202,602 L-199,590 L-195,581 L-188,570 L-178,559 L-165,549 L-121,520 L-78,491 L-61,480 L-17,451 L26,422 L47,408 L46,399 L41,401 L26,411 L-3,430 L-32,449 L-64,470 L-93,489 L-122,508 L-154,529 L-183,548 L-215,569 L-218,569 L-223,551 L-225,542 L-225,522 L-222,509 L-215,495 L-208,486 L-197,475 L-183,465 L-139,436 L-96,407 L-67,388 L-23,359 L20,330 L26,326 L28,326 L25,314 L25,311 L9,321 L-12,335 L-41,354 L-70,373 L-102,394 L-131,413 L-163,434 L-192,453 L-221,472 L-236,482 L-239,481 L-244,463 L-246,450 L-246,430 L-242,414 L-234,398 L-223,386 L-216,379 L-200,368 L-181,355 L-162,342 L-146,331 L-127,318 L-108,305 L-92,294 L-73,281 L-54,268 L-38,257 L-19,244 L-3,233 L16,220 L35,207 L51,196 L70,183 L85,173 L80,168 L67,155 L58,144 L48,130 L37,111 L27,90 L16,61 L12,48 L0,4 Z " fill="#F7D145" transform="translate(1494,672)"/>
<path d="M0,0 L4,2 L13,9 L23,18 L31,28 L39,44 L42,57 L42,75 L38,92 L28,120 L8,173 L-18,242 L-44,311 L-52,332 L-51,337 L-44,343 L-40,334 L-18,277 L2,225 L22,173 L40,126 L60,74 L68,54 L73,56 L84,65 L95,76 L104,90 L109,104 L110,110 L110,128 L106,146 L99,166 L73,235 L47,304 L32,344 L15,389 L16,394 L22,399 L23,394 L42,344 L64,287 L82,240 L102,188 L122,136 L133,107 L135,106 L147,115 L156,123 L164,133 L170,143 L175,158 L176,163 L176,177 L174,190 L169,207 L143,276 L117,345 L91,414 L79,446 L81,450 L90,457 L93,447 L112,397 L134,340 L154,288 L174,236 L192,189 L201,166 L205,166 L215,174 L225,183 L236,197 L243,211 L246,220 L247,226 L247,249 L243,266 L220,330 L203,377 L181,438 L164,485 L142,546 L121,604 L120,606 L132,606 L151,610 L162,613 L184,621 L208,633 L229,646 L248,659 L262,671 L276,682 L289,693 L291,694 L290,697 L256,714 L229,725 L195,736 L171,742 L150,746 L132,748 L117,749 L77,749 L50,746 L23,740 L-7,730 L-29,720 L-48,709 L-64,698 L-78,687 L-93,673 L-101,665 L-110,654 L-122,638 L-136,614 L-145,594 L-156,561 L-161,535 L-163,514 L-163,480 L-159,448 L-154,426 L-146,400 L-126,345 L-105,287 L-84,230 L-73,199 L-66,181 L-48,131 L-32,87 L-11,29 Z " fill="#F7D145" transform="translate(517,849)"/>
<path d="M0,0 L49,0 L87,1 L131,3 L186,5 L224,6 L260,8 L427,14 L461,15 L458,25 L451,41 L442,55 L432,65 L418,73 L407,77 L396,79 L361,79 L314,77 L237,73 L169,70 L133,68 L125,68 L120,80 L147,81 L208,84 L292,89 L335,91 L401,95 L426,96 L430,97 L428,106 L420,124 L411,137 L402,146 L389,154 L374,159 L362,161 L344,161 L297,159 L261,157 L220,155 L173,153 L116,150 L90,149 L87,158 L143,161 L186,163 L269,168 L313,170 L379,174 L401,175 L398,185 L391,201 L384,212 L375,222 L364,230 L353,235 L342,238 L336,239 L302,239 L259,237 L178,233 L137,231 L69,228 L58,228 L53,241 L86,242 L188,248 L231,250 L315,255 L358,257 L366,258 L361,273 L353,289 L343,303 L336,310 L326,317 L314,323 L298,327 L292,328 L277,328 L181,325 L66,321 L45,320 L-15,318 L-79,316 L-76,327 L-74,342 L-74,374 L-76,394 L-82,423 L-89,447 L-95,464 L-111,505 L-114,505 L-142,477 L-151,466 L-162,453 L-175,435 L-188,415 L-200,394 L-211,371 L-221,345 L-229,319 L-233,299 L-236,278 L-237,262 L-237,235 L-234,210 L-231,195 L-226,175 L-219,155 L-209,133 L-199,116 L-188,100 L-179,89 L-168,77 L-154,63 L-140,52 L-126,42 L-107,31 L-84,20 L-59,11 L-30,4 Z " fill="#F7D145" transform="translate(540,467)"/>
<path d="M0,0 L2,2 L18,52 L32,95 L36,108 L42,126 L46,139 L63,191 L64,197 L269,197 L264,202 L248,214 L234,224 L216,237 L198,250 L180,263 L162,276 L144,289 L125,303 L111,313 L105,317 L106,324 L135,412 L139,425 L153,467 L167,510 L166,514 L152,504 L133,490 L115,477 L97,464 L78,450 L60,437 L41,423 L23,410 L4,396 L-1,394 L-14,404 L-32,417 L-50,430 L-69,444 L-87,457 L-106,471 L-124,484 L-143,498 L-161,511 L-167,515 L-165,506 L-140,430 L-130,399 L-103,317 L-108,315 L-121,305 L-138,293 L-156,280 L-174,267 L-192,254 L-211,240 L-225,230 L-243,217 L-261,204 L-269,198 L-269,197 L-63,197 L-62,190 L-55,170 L-50,153 L-26,79 L-14,43 L-9,26 L-1,1 Z " fill="#FFF100" transform="translate(1024,704)"/>
<path d="M0,0 L13,0 L32,4 L43,7 L65,15 L89,27 L110,40 L129,53 L129,54 L104,56 L28,60 L-13,62 L-22,62 L-19,53 Z " fill="#FEF000" transform="translate(636,1455)"/>
<path d="M0,0 L2,1 L-5,29 L-11,50 L-18,78 L-24,99 L-31,127 L-36,144 L-38,145 L-50,136 L-68,122 L-81,112 L-89,106 L-88,100 L-76,77 L-64,60 L-52,46 L-31,25 L-20,16 L-4,3 Z " fill="#FEF000" transform="translate(1420,1388)"/>
<path d="M0,0 L2,0 L18,55 L20,64 L-3,76 L-17,81 L-26,84 L-40,88 L-64,92 L-86,94 L-116,94 L-111,89 L-97,78 L-80,64 L-66,53 L-50,40 L-36,29 L-20,16 L-6,5 Z " fill="#FEF000" transform="translate(1027,345)"/>
<path d="M0,0 L5,2 L25,15 L50,31 L67,42 L92,58 L109,69 L126,80 L125,83 L106,96 L87,109 L74,118 L70,117 L60,108 L53,101 L44,90 L34,76 L23,57 L13,36 L2,7 Z " fill="#FEF000" transform="translate(1508,726)"/>
<path d="M0,0 L45,1 L66,2 L70,20 L71,29 L71,61 L69,81 L63,110 L56,134 L54,141 L52,139 L33,89 L12,34 L0,3 Z " fill="#FEF000" transform="translate(395,780)"/>
</svg>
